# xmcd
#
# Track frame offsets: 
#        150
#        22713
#        55754
#        80229
#        103974
#        123194
#        143290
#        162221
#        199553
#        223058
#        245245
#
# Disc length: 3581 seconds
#
# Revision: 0
# Processed by: cddbd v1.5.2PL0 Copyright (c) Steve Scherf et al.
# Submitted via: ExactAudioCopyFreeDBPlugin 1.0
#
DISCID=920dfb0b
DTITLE=James Bolden Blues Band - No News Jus' The Blues
DYEAR=2013
DGENRE=Blues
TTITLE0=Big Boss Man
TTITLE1=Pocket Full Of Money
TTITLE2=Any Day Getaway
TTITLE3=Hey Little Man
TTITLE4=Don't Talk To Me
TTITLE5=I Don't Know You
TTITLE6=Hey There Pretty Woman
TTITLE7=Just So And So
TTITLE8=Border Town
TTITLE9=No News Jus' The Blues
TTITLE10=Border Town (Spanish Version)
EXTD=
EXTT0=
EXTT1=
EXTT2=
EXTT3=
EXTT4=
EXTT5=
EXTT6=
EXTT7=
EXTT8=
EXTT9=
EXTT10=
PLAYORDER=
